<mxfile host="app.diagrams.net" modified="2022-03-05T10:59:26.634Z" agent="5.0 (Macintosh; Intel Mac OS X 10_13_6) AppleWebKit/537.36 (KHTML, like Gecko) Chrome/98.0.4758.87 Safari/537.36" etag="NetKs45aZm14TFj71xqO" version="15.8.4" type="github">
  <diagram id="cdbsizKuEJP5LDyHANG4" name="Page-1">
    <mxGraphModel dx="930" dy="613" grid="1" gridSize="10" guides="1" tooltips="1" connect="1" arrows="1" fold="1" page="1" pageScale="1" pageWidth="1100" pageHeight="850" math="0" shadow="0">
      <root>
        <mxCell id="0" />
        <mxCell id="1" parent="0" />
        <mxCell id="aiJKPBjMmjev-Cm8D2N--1" value="" style="fontColor=#0066CC;verticalAlign=top;verticalLabelPosition=bottom;labelPosition=center;align=center;html=1;outlineConnect=0;fillColor=#CCCCCC;strokeColor=#6881B3;gradientColor=none;gradientDirection=north;strokeWidth=2;shape=mxgraph.networks.radio_tower;" vertex="1" parent="1">
          <mxGeometry x="40" y="150" width="115" height="190" as="geometry" />
        </mxCell>
        <mxCell id="aiJKPBjMmjev-Cm8D2N--2" value="" style="html=1;outlineConnect=0;fillColor=#CCCCCC;strokeColor=#6881B3;gradientColor=none;gradientDirection=north;strokeWidth=2;shape=mxgraph.networks.comm_link_edge;html=1;rounded=0;" edge="1" parent="1">
          <mxGeometry width="100" height="100" relative="1" as="geometry">
            <mxPoint x="470" y="190" as="sourcePoint" />
            <mxPoint x="170" y="170" as="targetPoint" />
            <Array as="points">
              <mxPoint x="360" y="160" />
            </Array>
          </mxGeometry>
        </mxCell>
        <mxCell id="aiJKPBjMmjev-Cm8D2N--4" style="edgeStyle=orthogonalEdgeStyle;rounded=0;orthogonalLoop=1;jettySize=auto;html=1;exitX=0.5;exitY=0.15;exitDx=0;exitDy=0;exitPerimeter=0;" edge="1" parent="1" source="aiJKPBjMmjev-Cm8D2N--1" target="aiJKPBjMmjev-Cm8D2N--1">
          <mxGeometry relative="1" as="geometry" />
        </mxCell>
        <mxCell id="aiJKPBjMmjev-Cm8D2N--5" value="" style="shape=mxgraph.cisco.buildings.telecommuter_house_pc;sketch=0;html=1;pointerEvents=1;dashed=0;fillColor=#4D4D4D;strokeColor=#ffffff;strokeWidth=2;verticalLabelPosition=bottom;verticalAlign=top;align=center;outlineConnect=0;" vertex="1" parent="1">
          <mxGeometry x="480" y="180" width="190" height="160" as="geometry" />
        </mxCell>
        <mxCell id="aiJKPBjMmjev-Cm8D2N--7" value="" style="shape=mxgraph.cisco.wireless.antenna;sketch=0;html=1;pointerEvents=1;dashed=0;fillColor=#036897;strokeColor=#ffffff;strokeWidth=2;verticalLabelPosition=bottom;verticalAlign=top;align=center;outlineConnect=0;" vertex="1" parent="1">
          <mxGeometry x="470" y="160" width="70" height="70" as="geometry" />
        </mxCell>
        <mxCell id="aiJKPBjMmjev-Cm8D2N--8" value="" style="fontColor=#0066CC;verticalAlign=top;verticalLabelPosition=bottom;labelPosition=center;align=center;html=1;outlineConnect=0;fillColor=#FF3333;strokeColor=#6881B3;gradientColor=none;gradientDirection=north;strokeWidth=2;shape=mxgraph.networks.wireless_modem;" vertex="1" parent="1">
          <mxGeometry x="540" y="210" width="40" height="50" as="geometry" />
        </mxCell>
      </root>
    </mxGraphModel>
  </diagram>
</mxfile>
